<svg width="82" height="84" viewBox="0 0 82 84" fill="none" xmlns="http://www.w3.org/2000/svg">
<path d="M25.2496 1.04553C34.4706 1.04553 42.5053 6.11679 46.7037 13.6178L46.9918 14.1334L47.4528 13.7633C50.9565 10.9491 55.4097 9.2643 60.2584 9.26428C71.5461 9.26428 80.6948 18.3947 80.6949 29.6549C80.6949 40.9152 71.5462 50.0455 60.2584 50.0455H25.2496C11.6874 50.0453 0.694946 39.0753 0.694946 25.5455C0.694946 12.0157 11.6874 1.04575 25.2496 1.04553Z" fill="url(#paint0_linear_916_16)" stroke="url(#paint1_linear_916_16)"/>
<path d="M29.9166 55L24 67.6883" stroke="url(#paint2_linear_916_16)" stroke-width="4" stroke-linecap="round"/>
<path d="M42.8333 55L36.9166 67.6883" stroke="url(#paint3_linear_916_16)" stroke-width="4" stroke-linecap="round"/>
<path d="M55.7499 55L49.8332 67.6883" stroke="url(#paint4_linear_916_16)" stroke-width="4" stroke-linecap="round"/>
<path d="M30.9166 68.6884L25 81.3767" stroke="url(#paint5_linear_916_16)" stroke-width="4" stroke-linecap="round"/>
<path d="M43.8333 68.6884L37.9166 81.3767" stroke="url(#paint6_linear_916_16)" stroke-width="4" stroke-linecap="round"/>
<defs>
<linearGradient id="paint0_linear_916_16" x1="43" y1="7.5" x2="16.5" y2="50.5" gradientUnits="userSpaceOnUse">
<stop stop-color="#EFEFEF" stop-opacity="0.5"/>
<stop offset="1" stop-color="#C3C3C3"/>
</linearGradient>
<linearGradient id="paint1_linear_916_16" x1="38.6949" y1="4.04553" x2="16.739" y2="48.0675" gradientUnits="userSpaceOnUse">
<stop stop-color="#D9D9D9"/>
<stop offset="1" stop-color="#747474"/>
</linearGradient>
<linearGradient id="paint2_linear_916_16" x1="29.7053" y1="55.4532" x2="23.7887" y2="68.1415" gradientUnits="userSpaceOnUse">
<stop stop-color="#1F84CD"/>
<stop offset="1" stop-color="#00CEFF"/>
</linearGradient>
<linearGradient id="paint3_linear_916_16" x1="42.6219" y1="55.4532" x2="36.7053" y2="68.1415" gradientUnits="userSpaceOnUse">
<stop stop-color="#1F84CD"/>
<stop offset="1" stop-color="#00CEFF"/>
</linearGradient>
<linearGradient id="paint4_linear_916_16" x1="55.5386" y1="55.4532" x2="49.6219" y2="68.1415" gradientUnits="userSpaceOnUse">
<stop stop-color="#1F84CD"/>
<stop offset="1" stop-color="#00CEFF"/>
</linearGradient>
<linearGradient id="paint5_linear_916_16" x1="30.7053" y1="69.1415" x2="24.7887" y2="81.8298" gradientUnits="userSpaceOnUse">
<stop stop-color="#1F84CD"/>
<stop offset="1" stop-color="#00CEFF"/>
</linearGradient>
<linearGradient id="paint6_linear_916_16" x1="43.6219" y1="69.1415" x2="37.7053" y2="81.8298" gradientUnits="userSpaceOnUse">
<stop stop-color="#1F84CD"/>
<stop offset="1" stop-color="#00CEFF"/>
</linearGradient>
</defs>
</svg>
